# File created by Blade
# Date/Time:  Wed Apr 08 17:20:14 2015
#---------------------------------------------------------
:version 1.10
:name HOM
:units
  mass 1.0
  length 1.000000
  angle deg
:documentation
     Acclaim Skeleton File
:root
   axis xyz
   order TX TY TZ RX RY RZ
   position 0.000000 0.000000 0.000000
   orientation 0 0 0
:bonedata
   begin
      id 1
      name Spine_dum
      direction 0.000000 1.000000 0.000000
      length 5.893853
      axis 0.0 0.0 0.0 xyz
   end
   begin
      id 2
      name LeftUpLeg_dum
      direction 1.000000 0.000000 0.000000
      length 3.697939
      axis 0.0 0.0 0.0 xyz
   end
   begin
      id 3
      name RightUpLeg_dum
      direction -1.000000 0.000000 0.000000
      length 3.697939
      axis 0.0 0.0 0.0 xyz
   end
   begin
      id 4
      name Spine
      direction 0.000000 1.000000 0.000000
      length 0.000000
      axis 0.0 0.0 0.0 xyz
      dof rx ry rz
   end
   begin
      id 5
      name Spine_dum1
      direction 0.000000 1.000000 0.000000
      length 16.447146
      axis 0.0 0.0 0.0 xyz
   end
   begin
      id 6
      name Spine_dum2
      direction 0.000000 1.000000 0.000000
      length 10.900383
      axis 0.0 0.0 0.0 xyz
   end
   begin
      id 7
      name Spine_dum3
      direction 0.000000 1.000000 0.000000
      length 10.900383
      axis 0.0 0.0 0.0 xyz
   end
   begin
      id 8
      name Head
      direction 0.000000 1.000000 0.000000
      length 4.527550
      axis 0.0 0.0 0.0 xyz
      dof rx ry rz
   end
   begin
      id 9
      name LeftShoulder
      direction 1.000000 0.000000 0.000000
      length 8.219464
      axis 0.0 0.0 -90.0 xyz
      dof rx ry rz
   end
   begin
      id 10
      name LeftArm
      direction 1.000000 0.000000 0.000000
      length 11.094937
      axis 0.0 0.0 -90.0 xyz
      dof rx ry rz
   end
   begin
      id 11
      name LeftForeArm
      direction 1.000000 0.000000 0.000000
      length 9.103875
      axis 0.0 0.0 -90.0 xyz
      dof ry rz rx
   end
   begin
      id 12
      name LeftHand
      direction 0.000000 0.000000 0.000000
      length 0.000000
      axis 0.0 0.0 -90.0 xyz
      dof rx ry rz
   end
   begin
      id 13
      name LeftHand_dum1
      direction 0.000000 0.000000 0.000000
      length 0.000000
      axis 0.0 0.0 -90.0 xyz
   end
   begin
      id 14
      name LeftHand_dum2
      direction 1.000000 0.000000 0.000000
      length 3.937000
      axis 0.0 0.0 -90.0 xyz
   end
   begin
      id 15
      name LeftHandThumb1
      direction 0.000000 0.000000 1.000000
      length 3.937000
      axis 0.0 0.0 -90.0 xyz
      dof rx rz ry
   end
   begin
      id 16
      name RightShoulder
      direction -1.000000 0.000000 0.000000
      length 8.219464
      axis 0.0 0.0 90.0 xyz
      dof rx ry rz
   end
   begin
      id 17
      name RightArm
      direction -1.000000 0.000000 0.000000
      length 11.094937
      axis 0.0 0.0 90.0 xyz
      dof rx ry rz
   end
   begin
      id 18
      name RightForeArm
      direction -1.000000 0.000000 0.000000
      length 9.103875
      axis 0.0 0.0 90.0 xyz
      dof ry rz rx
   end
   begin
      id 19
      name RightHand
      direction 0.000000 0.000000 0.000000
      length 0.000000
      axis 0.0 0.0 90.0 xyz
      dof rx ry rz
   end
   begin
      id 20
      name RightHand_dum1
      direction 0.000000 0.000000 0.000000
      length 0.000000
      axis 0.0 0.0 90.0 xyz
   end
   begin
      id 21
      name RightHand_dum2
      direction -1.000000 0.000000 0.000000
      length 3.937000
      axis 0.0 0.0 90.0 xyz
   end
   begin
      id 22
      name RightHandThumb1
      direction 0.000000 0.000000 1.000000
      length 3.937000
      axis 0.0 0.0 90.0 xyz
      dof rx rz ry
   end
   begin
      id 23
      name LeftUpLeg
      direction 0.000000 -1.000000 0.000000
      length 16.181467
      axis 0.0 0.0 0.0 xyz
      dof rx ry rz
   end
   begin
      id 24
      name LeftLeg
      direction 0.000000 -1.000000 0.000000
      length 16.501392
      axis 0.0 0.0 0.0 xyz
      dof rx ry rz
   end
   begin
      id 25
      name LeftFoot
      direction 0.000000 -0.258819 0.965926
      length 6.408245
      axis 15.0 0.0 0.0 xyz
      dof rx ry rz
   end
   begin
      id 26
      name LeftToeBase
      direction 0.000000 0.000000 1.000000
      length 2.952750
      axis 0.0 0.0 0.0 xyz
      dof rx ry rz
   end
   begin
      id 27
      name RightUpLeg
      direction 0.000000 -1.000000 0.000000
      length 16.181467
      axis 0.0 0.0 0.0 xyz
      dof rx ry rz
   end
   begin
      id 28
      name RightLeg
      direction 0.000000 -1.000000 0.000000
      length 16.501392
      axis 0.0 0.0 0.0 xyz
      dof rx ry rz
   end
   begin
      id 29
      name RightFoot
      direction 0.000000 -0.258819 0.965926
      length 6.408245
      axis 15.0 0.0 0.0 xyz
      dof rx ry rz
   end
   begin
      id 30
      name RightToeBase
      direction 0.000000 0.000000 1.000000
      length 2.952750
      axis 0.0 0.0 0.0 xyz
      dof rx ry rz
   end
:hierarchy
   begin
      root Spine_dum LeftUpLeg_dum RightUpLeg_dum
      Spine_dum Spine
      LeftUpLeg_dum LeftUpLeg
      RightUpLeg_dum RightUpLeg
      Spine Spine_dum1 Spine_dum2 Spine_dum3
      Spine_dum1 Head
      Spine_dum2 LeftShoulder
      Spine_dum3 RightShoulder
      LeftShoulder LeftArm
      LeftArm LeftForeArm
      LeftForeArm LeftHand
      LeftHand LeftHand_dum1 LeftHand_dum2
      LeftHand_dum1 LeftHandThumb1
      RightShoulder RightArm
      RightArm RightForeArm
      RightForeArm RightHand
      RightHand RightHand_dum1 RightHand_dum2
      RightHand_dum1 RightHandThumb1
      LeftUpLeg LeftLeg
      LeftLeg LeftFoot
      LeftFoot LeftToeBase
      RightUpLeg RightLeg
      RightLeg RightFoot
      RightFoot RightToeBase
   end

# File created by Blade
# Date/Time:  Wed Apr 08 17:19:54 2015
# Frame Rate: 120.000 fps
#------------------------------------------------------
:FULLY-SPECIFIED
:DEGREES
266
root 6.485170 35.923337 3.314126 -2.436161 -62.573838 -4.629066
Spine 8.905860 -1.247808 16.168243
Head 17.098109 2.574957 10.251283
LeftShoulder -5.384680 17.677459 17.934914
LeftArm 16.661154 20.310654 -75.103352
LeftForeArm 19.449563 -0.000000 27.132835
LeftHand -10.670089 -0.000000 -12.614079
LeftHandThumb1 -26.253704 0.000000 33.147579
RightShoulder -30.131219 -49.663089 23.149490
RightArm 51.708884 -6.408995 59.260220
RightForeArm 22.150618 -0.000000 3.893067
RightHand 0.181297 -0.000000 10.541553
RightHandThumb1 -24.326973 -0.000000 -32.862282
LeftUpLeg 12.743044 8.222916 -6.286874
LeftLeg 5.740287 -0.000000 -0.000000
LeftFoot -14.567532 -2.066969 -8.098793
LeftToeBase 17.842857 -0.000000 -0.000000
RightUpLeg -26.440794 6.766344 -14.958012
RightLeg 144.698997 -0.000000 -0.000000
RightFoot 0.748310 -0.321749 3.022740
RightToeBase -8.434855 -0.000000 0.000000
267
root 6.470466 35.939180 3.308360 -2.481929 -62.197392 -4.592778
Spine 8.843303 -1.293268 15.982545
Head 17.130483 2.741191 10.075740
LeftShoulder -5.415162 17.591870 17.845299
LeftArm 16.732270 20.082753 -75.198541
LeftForeArm 19.620773 -0.000000 27.111574
LeftHand -10.729087 -0.000000 -12.545484
LeftHandThumb1 -26.253704 0.000000 33.147579
RightShoulder -30.319975 -49.649059 23.337458
RightArm 51.425452 -5.916588 60.149550
RightForeArm 22.604570 -0.000000 4.103729
RightHand -0.055265 -0.000000 12.003635
RightHandThumb1 -24.326973 -0.000000 -32.862282
LeftUpLeg 12.757720 8.085110 -6.194234
LeftLeg 5.788745 -0.000000 -0.000000
LeftFoot -14.473193 -2.426131 -8.306020
LeftToeBase 17.978955 -0.000000 -0.000000
RightUpLeg -26.408042 6.254258 -15.008788
RightLeg 145.337533 -0.000000 -0.000000
RightFoot 1.476716 -0.079713 2.963085
RightToeBase -6.904637 -0.000000 0.000000
268
root 6.457515 35.958020 3.296603 -2.376864 -61.853512 -4.706743
Spine 8.786464 -1.338346 15.870596
Head 17.162077 2.883702 9.873216
LeftShoulder -5.456511 17.576610 17.743900
LeftArm 16.817676 19.841844 -75.328294
LeftForeArm 19.630186 -0.000000 27.123880
LeftHand -10.771480 -0.000000 -12.447458
LeftHandThumb1 -26.253704 0.000000 33.147579
RightShoulder -30.241932 -49.610760 23.299270
RightArm 50.898735 -5.397146 61.095048
RightForeArm 22.620030 0.000000 4.572027
RightHand -0.569621 0.000000 13.665669
RightHandThumb1 -24.326973 -0.000000 -32.862282
LeftUpLeg 12.728632 7.910260 -6.049878
LeftLeg 5.863287 -0.000000 -0.000000
LeftFoot -14.392998 -2.694028 -8.462445
LeftToeBase 18.024753 -0.000000 -0.000000
RightUpLeg -26.400624 5.734628 -14.919762
RightLeg 145.896622 -0.000000 -0.000000
RightFoot 2.162327 0.379294 3.216801
RightToeBase -5.407767 -0.000000 0.000000
269
root 6.442728 35.976341 3.282194 -2.283378 -61.516330 -4.815757
Spine 8.759991 -1.385103 15.738547
Head 17.157548 3.072281 9.720929
LeftShoulder -5.506823 17.542250 17.633292
LeftArm 16.833255 19.573622 -75.460403
LeftForeArm 19.688561 -0.000000 27.247538
LeftHand -10.791756 -0.000000 -12.487142
LeftHandThumb1 -26.253704 0.000000 33.147579
RightShoulder -30.201399 -49.541522 23.288830
RightArm 50.449686 -5.376395 61.400650
RightForeArm 23.158061 -0.000000 5.164921
RightHand -1.087130 -0.000000 15.078725
RightHandThumb1 -24.326973 -0.000000 -32.862282
LeftUpLeg 12.706189 7.707085 -5.924415
LeftLeg 5.930431 -0.000000 -0.000000
LeftFoot -14.312080 -2.856155 -8.518943
LeftToeBase 18.030887 -0.000000 -0.000000
RightUpLeg -26.422904 5.230650 -14.838551
RightLeg 146.383235 -0.000000 -0.000000
RightFoot 3.035572 1.408073 3.284971
RightToeBase -5.609262 -0.000000 0.000000
270
root 6.426974 35.994410 3.263289 -2.128768 -61.253385 -5.006011
Spine 8.780282 -1.346632 15.646739
Head 17.126431 3.255189 9.562645
LeftShoulder -5.525413 17.524351 17.546312
LeftArm 16.868772 19.242763 -75.633110
LeftForeArm 19.231053 -0.000000 27.389809
LeftHand -10.981788 -0.000000 -12.695252
LeftHandThumb1 -26.253704 0.000000 33.147579
RightShoulder -30.273468 -49.573011 23.370391
RightArm 50.136613 -5.581216 61.367032
RightForeArm 23.785853 -0.000000 5.968685
RightHand -1.534663 -0.000000 16.174010
RightHandThumb1 -24.326973 -0.000000 -32.862282
LeftUpLeg 12.696969 7.577065 -5.766251
LeftLeg 5.981965 -0.000000 -0.000000
LeftFoot -14.244171 -2.942428 -8.491766
LeftToeBase 17.964835 -0.000000 -0.000000
RightUpLeg -26.495898 4.819142 -14.666762
RightLeg 146.830159 -0.000000 -0.000000
RightFoot 3.850319 2.784845 3.665062
RightToeBase -6.037871 -0.000000 0.000000
271
root 6.416913 36.013543 3.239279 -1.913211 -60.992022 -5.237912
Spine 8.794890 -1.310760 15.572511
Head 17.096386 3.410218 9.420461
LeftShoulder -5.527305 17.554612 17.454940
LeftArm 16.890231 18.973777 -75.803425
LeftForeArm 19.129059 0.000000 27.601623
LeftHand -11.025382 -0.000000 -12.600116
LeftHandThumb1 -26.253704 0.000000 33.147579
RightShoulder -30.359270 -49.677592 23.480322
RightArm 49.903444 -5.826830 61.216710
RightForeArm 24.229665 -0.000000 6.888775
RightHand -2.011113 -0.000000 17.074311
RightHandThumb1 -24.326973 -0.000000 -32.862282
LeftUpLeg 12.648330 7.424514 -5.605643
LeftLeg 6.030787 -0.000000 -0.000000
LeftFoot -14.208296 -2.945069 -8.506121
LeftToeBase 17.919337 -0.000000 -0.000000
RightUpLeg -26.595830 4.277516 -14.388752
RightLeg 147.213841 -0.000000 -0.000000
RightFoot 4.672896 4.035016 3.302781
RightToeBase -6.600101 -0.000000 0.000000
272
root 6.402617 36.033363 3.214467 -1.660269 -60.818552 -5.519580
Spine 8.855503 -1.205269 15.518827
Head 17.011464 3.617069 9.314911
LeftShoulder -5.568604 17.556069 17.345623
LeftArm 16.913254 18.827936 -75.922907
LeftForeArm 18.885490 -0.000000 27.794705
LeftHand -11.038060 -0.000000 -12.642008
LeftHandThumb1 -26.253704 0.000000 33.147579
RightShoulder -30.469188 -49.800355 23.592017
RightArm 49.722275 -6.083547 61.066236
RightForeArm 24.495740 -0.000000 7.811386
RightHand -2.435129 0.000000 17.714715
RightHandThumb1 -24.326973 -0.000000 -32.862282
LeftUpLeg 12.643644 7.421026 -5.402894
LeftLeg 6.014353 -0.000000 -0.000000
LeftFoot -14.143482 -2.960257 -8.503667
LeftToeBase 17.827267 -0.000000 -0.000000
RightUpLeg -26.707853 3.896392 -14.087993
RightLeg 147.579537 -0.000000 -0.000000
RightFoot 5.203298 5.230735 3.549760
RightToeBase -6.004329 -0.000000 0.000000
273
root 6.387447 36.053408 3.189060 -1.456757 -60.668772 -5.754297
Spine 8.930217 -1.080834 15.426910
Head 16.954108 3.794784 9.229545
LeftShoulder -5.583368 17.563640 17.290242
LeftArm 16.878501 18.739231 -76.096400
LeftForeArm 18.933023 -0.000000 28.004543
LeftHand -10.919172 -0.000000 -12.441112
LeftHandThumb1 -26.253704 0.000000 33.147579
RightShoulder -30.583001 -49.900681 23.682566
RightArm 49.700573 -6.235300 61.175533
RightForeArm 24.602159 -0.000000 8.260981
RightHand -2.668601 -0.000000 18.229328
RightHandThumb1 -24.326973 -0.000000 -32.862282
LeftUpLeg 12.664115 7.464393 -5.218061
LeftLeg 5.960604 -0.000000 -0.000000
LeftFoot -14.081405 -2.984825 -8.574054
LeftToeBase 17.674572 -0.000000 -0.000000
RightUpLeg -26.806302 3.447881 -13.740616
RightLeg 147.974625 -0.000000 -0.000000
RightFoot 5.987541 6.342384 3.006840
RightToeBase -8.091529 -0.000000 0.000000
274
root 6.369989 36.071488 3.159944 -1.286687 -60.514645 -5.928843
Spine 8.984208 -0.981096 15.254246
Head 16.912793 3.971301 9.237573
LeftShoulder -5.650654 17.607121 17.245803
LeftArm 16.924998 18.791988 -76.163402
LeftForeArm 18.673755 -0.000000 28.226736
LeftHand -10.993468 0.000000 -12.515392
LeftHandThumb1 -26.253704 0.000000 33.147579
RightShoulder -30.697188 -49.986883 23.813536
RightArm 49.763982 -6.647976 61.005277
RightForeArm 25.187042 -0.000000 8.569911
RightHand -2.763583 -0.000000 18.482051
RightHandThumb1 -24.326973 -0.000000 -32.862282
LeftUpLeg 12.663549 7.595812 -5.040014
LeftLeg 5.913678 -0.000000 -0.000000
LeftFoot -13.982175 -3.042097 -8.544563
LeftToeBase 17.583493 -0.000000 -0.000000
RightUpLeg -26.900793 3.048135 -13.449113
RightLeg 148.390768 -0.000000 -0.000000
RightFoot 6.558832 7.010680 3.284359
RightToeBase -8.785560 -0.000000 0.000000
275
root 6.352406 36.088386 3.130888 -1.182812 -60.386216 -6.037719
Spine 9.052560 -0.862081 15.023265
Head 16.907164 4.146882 9.316856
LeftShoulder -5.677613 17.623161 17.278446
LeftArm 16.892334 18.865968 -76.301375
LeftForeArm 18.598017 -0.000000 28.470199
LeftHand -11.001338 -0.000000 -12.452790
LeftHandThumb1 -26.253704 0.000000 33.147579
RightShoulder -30.835696 -50.029867 23.958408
RightArm 49.909924 -7.005627 61.007550
RightForeArm 25.570239 0.000000 8.629921
RightHand -2.783248 0.000000 18.676802
RightHandThumb1 -24.326973 -0.000000 -32.862282
LeftUpLeg 12.693247 7.731543 -4.903001
LeftLeg 5.819863 -0.000000 -0.000000
LeftFoot -13.862552 -3.070235 -8.551959
LeftToeBase 17.474186 -0.000000 -0.000000
RightUpLeg -26.966220 2.692227 -13.149472
RightLeg 148.844632 -0.000000 -0.000000
RightFoot 6.634423 6.942339 3.049187
RightToeBase -8.031727 -0.000000 0.000000
276
root 6.334007 36.107438 3.100801 -1.046528 -60.266546 -6.163454
Spine 9.090831 -0.779601 14.788555
Head 16.950801 4.354259 9.408294
LeftShoulder -5.751885 17.647560 17.268147
LeftArm 16.867308 18.879717 -76.449175
LeftForeArm 18.758422 0.000000 28.641172
LeftHand -10.901710 -0.000000 -12.536638
LeftHandThumb1 -26.253704 0.000000 33.147579
RightShoulder -30.902865 -50.093431 24.085127
RightArm 50.033998 -7.257755 61.162511
RightForeArm 25.832966 -0.000000 8.626289
RightHand -2.698609 -0.000000 18.789574
RightHandThumb1 -24.326973 -0.000000 -32.862282
LeftUpLeg 12.702502 7.933862 -4.744388
LeftLeg 5.731021 -0.000000 -0.000000
LeftFoot -13.756329 -3.120604 -8.506440
LeftToeBase 17.440220 -0.000000 -0.000000
RightUpLeg -27.003276 2.394923 -12.841581
RightLeg 149.220345 -0.000000 -0.000000
RightFoot 6.508826 6.580812 2.944679
RightToeBase -6.934937 -0.000000 0.000000
277
root 6.314975 36.123740 3.073945 -1.032599 -60.131977 -6.175190
Spine 9.133697 -0.708139 14.489374
Head 17.052235 4.576625 9.532537
LeftShoulder -5.779061 17.682333 17.295897
LeftArm 16.835195 19.034315 -76.546436
LeftForeArm 18.820446 -0.000000 28.834904
LeftHand -10.860238 -0.000000 -12.549541
LeftHandThumb1 -26.253704 0.000000 33.147579
RightShoulder -30.971862 -50.109906 24.190641
RightArm 50.092053 -7.428808 61.534361
RightForeArm 25.939340 -0.000000 8.614802
RightHand -2.658121 0.000000 18.741064
RightHandThumb1 -24.326973 -0.000000 -32.862282
LeftUpLeg 12.729857 8.208521 -4.638810
LeftLeg 5.657896 -0.000000 -0.000000
LeftFoot -13.637529 -3.157128 -8.507267
LeftToeBase 17.394011 -0.000000 -0.000000
RightUpLeg -26.973241 2.101626 -12.605536
RightLeg 149.565694 -0.000000 -0.000000
RightFoot 6.356435 6.028083 2.798314
RightToeBase -6.697973 -0.000000 0.000000
